<?xml version="1.0" standalone="no"?>
<!DOCTYPE svg PUBLIC "-//W3C//DTD SVG 20010904//EN"
 "http://www.w3.org/TR/2001/REC-SVG-20010904/DTD/svg10.dtd">
<svg version="1.0" xmlns="http://www.w3.org/2000/svg"
 width="225.000000pt" height="225.000000pt" viewBox="0 0 225.000000 225.000000"
 preserveAspectRatio="xMidYMid meet">
<metadata>
Created by potrace 1.16, written by Peter Selinger 2001-2019
</metadata>
<g transform="translate(0.000000,225.000000) scale(0.100000,-0.100000)"
fill="#000000" stroke="none">
<path d="M1462 1820 l-22 -19 25 -27 c38 -41 105 -146 105 -164 0 -9 4 -20 9
-25 5 -6 11 -23 14 -40 3 -16 14 -59 26 -94 11 -35 21 -70 21 -77 0 -34 52
-125 79 -139 l29 -15 4 55 c1 30 1 55 -2 55 -6 0 -12 11 -52 91 -15 30 -28 50
-28 44 -1 -5 -7 8 -14 30 -7 22 -18 39 -24 38 -7 -2 -12 7 -12 20 0 13 -5 28
-10 33 -6 6 -17 44 -25 86 -28 150 -66 196 -123 148z"/>
<path d="M485 1654 c-13 -13 -18 -14 -31 -4 -12 11 -19 9 -40 -11 -22 -21 -24
-21 -18 -4 4 14 -3 11 -25 -12 -18 -18 -38 -33 -46 -33 -11 0 -14 -11 -12 -39
1 -22 6 -43 10 -47 4 -4 7 -23 7 -43 0 -27 3 -32 10 -21 8 12 10 9 10 -11 0
-30 35 -68 43 -47 3 7 6 4 6 -7 1 -24 37 -59 46 -45 8 13 25 13 25 -1 0 -5 -4
-7 -10 -4 -5 3 -10 -1 -10 -9 0 -12 5 -14 26 -6 14 6 27 10 28 10 4 0 -12
-100 -19 -127 -5 -16 -1 -24 14 -33 25 -13 61 -5 61 15 0 11 17 20 96 52 6 2
18 -2 26 -10 25 -25 105 -57 143 -57 75 0 138 58 158 147 8 35 -15 87 -60 137
l-42 47 -21 -21 c-11 -11 -27 -20 -36 -20 -8 0 -12 -4 -9 -10 4 -6 -13 -10
-44 -10 -47 0 -68 13 -38 23 9 3 9 7 -2 20 -10 13 -17 15 -27 6 -8 -6 -11 -15
-8 -20 3 -5 0 -9 -5 -9 -13 0 -14 17 -2 24 4 3 6 17 3 31 -2 15 0 25 7 25 6 0
11 17 11 40 0 36 -2 40 -25 40 -21 0 -29 -9 -46 -47 -11 -26 -24 -50 -28 -53
-5 -3 -18 -24 -29 -46 -12 -23 -39 -55 -60 -70 -23 -17 -37 -35 -35 -44 4 -13
3 -13 -6 0 -6 9 -7 18 -1 24 6 6 10 16 10 24 0 11 -3 11 -15 -2 -8 -8 -15 -19
-15 -25 0 -6 -9 -11 -21 -11 -17 0 -18 2 -7 14 37 39 48 61 68 133 12 43 26
84 30 92 6 11 -15 71 -25 71 -2 0 -11 -7 -20 -16z"/>
<path d="M1361 1394 c-24 -21 -40 -42 -37 -50 3 -8 2 -14 -3 -14 -15 0 -11
-82 5 -116 18 -38 46 -50 101 -41 47 8 54 16 60 69 7 57 -17 105 -60 123 -20
9 -25 14 -14 15 53 1 105 -86 94 -156 l-6 -35 23 33 c19 27 21 36 11 48 -7 8
-16 26 -20 40 -16 59 -36 88 -68 101 -17 7 -34 14 -38 16 -3 2 -24 -13 -48
-33z"/>
<path d="M1055 1181 c-52 -22 -92 -83 -85 -131 3 -24 86 -100 108 -100 20 0
52 -24 52 -38 -1 -30 -100 -73 -172 -74 -70 0 -117 27 -153 89 -36 63 -68 84
-91 61 -25 -24 -6 -82 29 -86 17 -2 24 -8 21 -17 -4 -9 9 -21 33 -34 21 -11
34 -20 30 -21 -4 0 4 -12 18 -27 31 -33 95 -145 95 -166 0 -23 85 -95 128
-108 50 -15 119 -5 99 15 -7 7 -34 15 -61 18 -49 6 -64 18 -77 63 -3 11 -11
19 -17 18 -6 -2 -9 4 -6 12 4 8 10 13 14 10 4 -3 10 2 14 10 3 10 19 15 46 15
33 0 40 -3 40 -20 0 -11 5 -20 10 -20 6 0 10 5 10 10 0 6 6 10 13 10 7 0 23
14 37 30 14 17 30 30 37 30 6 0 14 6 16 13 9 21 27 -14 26 -53 0 -19 -6 -52
-13 -72 -24 -68 3 -29 59 85 54 111 127 207 158 207 8 0 18 7 21 16 3 8 10 12
16 9 6 -3 7 1 4 10 -4 9 -3 15 2 14 21 -4 26 2 14 16 -22 26 -39 17 -76 -41
-45 -70 -83 -94 -150 -94 -93 0 -205 66 -146 87 9 3 41 31 69 62 40 42 53 64
53 87 0 36 -30 78 -70 99 -31 16 -122 19 -155 6z"/>
<path d="M530 1056 c-46 -46 -90 -103 -90 -118 0 -3 8 -4 18 -2 13 4 17 -1 18
-20 1 -14 14 -40 28 -57 14 -17 26 -37 26 -45 0 -16 18 -18 40 -4 12 7 12 12
2 22 -6 6 -12 21 -12 32 0 11 -7 27 -16 37 -14 16 -14 23 1 83 22 87 18 104
-15 72z"/>
</g>
</svg>
